<svg version="1.2" xmlns="http://www.w3.org/2000/svg" viewBox="0 0 1080 1080" width="1080" height="1080">
	<style>
		tspan { white-space:pre } 
		.s0 { fill: #e4e4e4 } 
	</style>
	<g id="Layer 1">
		<path id="shape white" fill-rule="evenodd" class="s0" d="m85.74 585.75l965.18-474.75c0 0 35.43 176.01-186.76 275.15-231.45 103.28-573.44 256.56-573.44 256.56 0 0 25.09 11.9 75.42 1.63 37.17-7.59 586.49-248.34 586.49-248.34 0 0 0.97 171.06-178.61 235.94-31.5 11.38-370.82 114.96-370.82 114.96 0 0 37.59 14.6 68.78 9.34 31.95-5.4 344.62-93.37 344.62-93.37 0 0-16.46 128.47-156.3 168.43-10.19 2.91-211.81 34.11-211.81 34.11 0 0 26.69 18.66 66.87 25.53 50.06 8.56 87.35 19.4 87.35 19.4 0 0-126.6 101.15-235.59 38.27-108.98-62.87-287.31-167.82-287.31-167.82 0 0-57.72-32.9-52.48-103.16 4.9-65.74 50.47-87.89 58.41-91.88z"/>
	</g>
</svg>